<svg width="169" height="28" viewBox="0 0 169 28" fill="none" xmlns="http://www.w3.org/2000/svg">
    <path fill-rule="evenodd" clip-rule="evenodd" d="M0.00012207 0V1.83103V3.66245H27.882V1.83103V0H0.00012207Z" fill="#fff"/>
    <path fill-rule="evenodd" clip-rule="evenodd" d="M0.00012207 24.2195V26.0145V27.8453V27.8819H27.882V27.8453V26.0145V24.2195H0.00012207Z" fill="#fff"/>
    <path fill-rule="evenodd" clip-rule="evenodd" d="M19.3667 21.9861H8.5338C7.51595 21.2985 6.63268 20.4268 5.94161 19.4121H0.000244141V21.9861V23.1194H10.7905H17.11H27.9007V21.9861V19.4121H21.9589C21.2678 20.4268 20.3846 21.2985 19.3667 21.9861Z" fill="#fff"/>
    <path fill-rule="evenodd" clip-rule="evenodd" d="M23.4785 12.3042H4.42188C4.58173 11.3967 4.86589 10.5317 5.26016 9.73022H0V12.3042V13.4379H4.28849H23.6119H27.9004V12.3042V9.73022H22.6403C23.0345 10.5317 23.3187 11.3967 23.4785 12.3042Z" fill="#fff"/>
    <path fill-rule="evenodd" clip-rule="evenodd" d="M23.0942 17.1453H4.80642C4.52383 16.3307 4.34505 15.4682 4.29137 14.5713H0.00012207V17.1453V18.2786H27.9005V17.1453V14.5713H23.6093C23.5552 15.4682 23.3764 16.3307 23.0942 17.1453Z" fill="#fff"/>
    <path fill-rule="evenodd" clip-rule="evenodd" d="M21.0866 7.46338H6.81371C7.86471 6.31825 9.18686 5.42493 10.6807 4.8894H0.00012207V7.46338V8.59668H27.9005V7.46338V4.8894H17.2196C18.7138 5.42493 20.0356 6.31825 21.0866 7.46338Z" fill="#fff"/>
    <path d="M40.68 14.628H46.08V21H43.92V19.596H43.596C43.452 20.064 43.176 20.46 42.768 20.784C42.36 21.096 41.748 21.252 40.932 21.252C40.356 21.252 39.816 21.144 39.312 20.928C38.808 20.712 38.37 20.394 37.998 19.974C37.626 19.542 37.332 19.014 37.116 18.39C36.9 17.754 36.792 17.016 36.792 16.176V13.224C36.792 12.408 36.906 11.688 37.134 11.064C37.374 10.428 37.698 9.894 38.106 9.462C38.526 9.03 39.024 8.706 39.6 8.49C40.176 8.262 40.812 8.148 41.508 8.148C42.228 8.148 42.87 8.268 43.434 8.508C43.998 8.736 44.478 9.06 44.874 9.48C45.27 9.888 45.57 10.374 45.774 10.938C45.978 11.49 46.08 12.084 46.08 12.72V12.936H43.704V12.72C43.704 11.964 43.506 11.394 43.11 11.01C42.726 10.614 42.18 10.416 41.472 10.416C40.8 10.416 40.248 10.644 39.816 11.1C39.384 11.544 39.168 12.312 39.168 13.404V16.068C39.168 18.012 39.96 18.984 41.544 18.984C42.252 18.984 42.786 18.798 43.146 18.426C43.518 18.042 43.704 17.532 43.704 16.896H40.68V14.628ZM47.4175 8.4H51.5935L52.3135 17.868V19.704H52.7455V17.868L53.4655 8.4H57.6415V21H55.4815V12.576L55.6975 9.696H55.2655L54.3295 21H50.7655L49.7935 9.696H49.3615L49.5775 12.576V21H47.4175V8.4ZM59.141 21.864H67.961V23.916H59.141V21.864ZM70.5405 8.4H72.9165V18.732H78.6405V21H70.5405V8.4ZM87.7359 18.3H83.4519L82.8399 21H80.3559L83.3619 8.4H87.8259L90.8319 21H88.3479L87.7359 18.3ZM83.9559 16.032H87.2139L85.7559 9.588H85.4319L83.9559 16.032ZM101.151 8.4V16.644C101.151 18.084 100.767 19.212 99.9994 20.028C99.2434 20.844 98.1154 21.252 96.6154 21.252C95.1154 21.252 93.9814 20.844 93.2134 20.028C92.4574 19.212 92.0794 18.084 92.0794 16.644V8.4H94.4554V16.644C94.4554 17.388 94.6294 17.97 94.9774 18.39C95.3254 18.81 95.8714 19.02 96.6154 19.02C97.3594 19.02 97.9054 18.81 98.2534 18.39C98.6014 17.97 98.7754 17.388 98.7754 16.644V8.4H101.151ZM109.347 19.812H109.671V8.4H112.047V21H107.403L105.927 9.588H105.603V21H103.227V8.4H107.871L109.347 19.812ZM118.694 19.092C119.15 19.092 119.522 19.026 119.81 18.894C120.11 18.75 120.338 18.564 120.494 18.336C120.662 18.096 120.776 17.826 120.836 17.526C120.896 17.214 120.926 16.896 120.926 16.572V16.248H123.302V16.572C123.302 18.072 122.906 19.23 122.114 20.046C121.334 20.85 120.194 21.252 118.694 21.252C117.254 21.252 116.114 20.814 115.274 19.938C114.434 19.062 114.014 17.784 114.014 16.104V13.296C114.014 12.492 114.122 11.772 114.338 11.136C114.554 10.488 114.866 9.948 115.274 9.516C115.682 9.072 116.174 8.736 116.75 8.508C117.326 8.268 117.974 8.148 118.694 8.148C119.438 8.148 120.098 8.256 120.674 8.472C121.25 8.688 121.73 9 122.114 9.408C122.51 9.816 122.804 10.308 122.996 10.884C123.2 11.46 123.302 12.108 123.302 12.828V13.152H120.926V12.828C120.926 12.528 120.89 12.228 120.818 11.928C120.746 11.628 120.626 11.358 120.458 11.118C120.29 10.878 120.062 10.686 119.774 10.542C119.486 10.386 119.126 10.308 118.694 10.308C118.298 10.308 117.956 10.386 117.668 10.542C117.38 10.686 117.14 10.89 116.948 11.154C116.756 11.406 116.612 11.706 116.516 12.054C116.432 12.39 116.39 12.744 116.39 13.116V16.284C116.39 16.692 116.432 17.07 116.516 17.418C116.6 17.754 116.732 18.048 116.912 18.3C117.092 18.552 117.326 18.75 117.614 18.894C117.914 19.026 118.274 19.092 118.694 19.092ZM125.27 8.4H127.646V13.548H131.714V8.4H134.09V21H131.714V15.816H127.646V21H125.27V8.4ZM138.865 16.248V21H136.489V8.4H141.421C142.069 8.4 142.633 8.508 143.113 8.724C143.593 8.928 143.989 9.204 144.301 9.552C144.625 9.888 144.865 10.278 145.021 10.722C145.189 11.154 145.273 11.598 145.273 12.054V12.486C145.273 12.954 145.189 13.416 145.021 13.872C144.865 14.316 144.625 14.718 144.301 15.078C143.989 15.426 143.593 15.708 143.113 15.924C142.633 16.14 142.069 16.248 141.421 16.248H138.865ZM138.865 13.98H141.187C141.715 13.98 142.129 13.836 142.429 13.548C142.741 13.26 142.897 12.888 142.897 12.432V12.216C142.897 11.76 142.741 11.388 142.429 11.1C142.129 10.812 141.715 10.668 141.187 10.668H138.865V13.98ZM153.865 18.3H149.581L148.969 21H146.485L149.491 8.4H153.955L156.961 21H154.477L153.865 18.3ZM150.085 16.032H153.343L151.885 9.588H151.561L150.085 16.032ZM158.064 8.4H162.636C164.196 8.4 165.354 8.766 166.11 9.498C166.866 10.218 167.244 11.34 167.244 12.864V16.536C167.244 18.06 166.866 19.188 166.11 19.92C165.354 20.64 164.196 21 162.636 21H158.064V18.714H159.252V10.668H158.064V8.4ZM162.636 18.732C163.464 18.732 164.04 18.54 164.364 18.156C164.7 17.76 164.868 17.148 164.868 16.32V12.864C164.868 12.144 164.7 11.598 164.364 11.226C164.04 10.854 163.464 10.668 162.636 10.668H161.628V18.732H162.636Z" fill="#fff"/>
</svg>
