<?xml version="1.0" encoding="UTF-8"?>
<svg width="14px" height="14px" viewBox="0 0 14 14" version="1.1" xmlns="http://www.w3.org/2000/svg" xmlns:xlink="http://www.w3.org/1999/xlink">
    <title>Layer_x0020_1</title>
    <g id="Page-1" stroke="none" stroke-width="1" fill="none" fill-rule="evenodd">
        <g id="Layer_x0020_1" fill-rule="nonzero">
            <polygon id="Path" points="14 0 0 0 0 14 14 14"></polygon>
            <path d="M9.0451,4.744 L5.1667,4.744 C5.0035,4.744 4.86914,4.8784 4.86914,5.0416 L4.86914,8.92 C4.86914,9.0832 5.0035,9.2176 5.1667,9.2176 L9.0451,9.2176 C9.2083,9.2176 9.3427,9.0832 9.3427,8.92 L9.3427,5.0416 C9.3427,4.8784 9.2083,4.744 9.0451,4.744 Z" id="Path" fill="#FFFFFF"></path>
            <path d="M4.56174,0.2704 L0.68334,0.2704 C0.52014,0.2704 0.38574,0.4048 0.38574,0.568 L0.38574,4.4464 C0.38574,4.6096 0.52014,4.744 0.68334,4.744 L4.56174,4.744 C4.72494,4.744 4.85934,4.6096 4.85934,4.4464 L4.85934,0.568 C4.85934,0.4048 4.72494,0.2704 4.56174,0.2704 Z" id="Path" fill="#FFFFFF"></path>
            <path d="M13.5285,0.2704 L9.6501,0.2704 C9.4869,0.2704 9.3525,0.4048 9.3525,0.568 L9.3525,4.4464 C9.3525,4.6096 9.4869,4.744 9.6501,4.744 L13.5285,4.744 C13.6917,4.744 13.8261,4.6096 13.8261,4.4464 L13.8261,0.568 C13.8261,0.4048 13.6917,0.2704 13.5285,0.2704 Z" id="Path" fill="#FFFFFF"></path>
            <path d="M4.56174,9.2272 L0.68334,9.2272 C0.52014,9.2272 0.38574,9.3616 0.38574,9.5248 L0.38574,13.4032 C0.38574,13.5664 0.52014,13.7008 0.68334,13.7008 L4.56174,13.7008 C4.72494,13.7008 4.85934,13.5664 4.85934,13.4032 L4.85934,9.5248 C4.85934,9.3616 4.72494,9.2272 4.56174,9.2272 Z" id="Path" fill="#FFFFFF"></path>
            <path d="M13.5285,9.2272 L9.6501,9.2272 C9.4869,9.2272 9.3525,9.3616 9.3525,9.5248 L9.3525,13.4032 C9.3525,13.5664 9.4869,13.7008 9.6501,13.7008 L13.5285,13.7008 C13.6917,13.7008 13.8261,13.5664 13.8261,13.4032 L13.8261,9.5248 C13.8261,9.3616 13.6917,9.2272 13.5285,9.2272 Z" id="Path" fill="#FFFFFF"></path>
        </g>
    </g>
</svg>