<svg height="238" width="388" xmlns="http://www.w3.org/2000/svg"><path d="M79.359 46.42c63.216-61.893 165.71-61.893 228.926 0l7.608 7.45a7.808 7.808 0 0 1 0 11.206l-26.026 25.482a4.108 4.108 0 0 1-5.723 0l-10.47-10.25c-44.101-43.18-115.603-43.18-159.705 0l-11.212 10.977a4.108 4.108 0 0 1-5.723 0L71.008 65.803a7.808 7.808 0 0 1 0-11.207zm282.75 52.7l23.163 22.678a7.808 7.808 0 0 1 0 11.207L280.828 235.267c-3.161 3.094-8.286 3.094-11.446 0l-74.129-72.578a2.054 2.054 0 0 0-2.862 0l-74.126 72.578c-3.161 3.094-8.286 3.094-11.447 0L2.371 133.004a7.808 7.808 0 0 1 0-11.207l23.163-22.679c3.16-3.095 8.285-3.095 11.446 0l74.13 72.58c.79.773 2.071.773 2.861 0v-.001l74.126-72.579c3.16-3.095 8.286-3.095 11.446 0l74.13 72.579c.79.774 2.071.774 2.862 0l74.128-72.578c3.16-3.094 8.285-3.094 11.446 0z" fill="#3b99fc"/></svg>